<svg height="32" viewBox="0 0 32 32" width="32" xmlns="http://www.w3.org/2000/svg"><path d="m15.9985267 0c-8.83415701 0-15.9985267 7.3446728-15.9985267 16.4054189 0 7.2479926 4.58405721 13.3962481 10.9420179 15.5655098.8005156.1510628 1.0922373-.3555011 1.0922373-.790562 0-.3887349-.0137512-1.4209973-.021609-2.7896261-4.45047425.9909719-5.38948404-2.1994742-5.38948404-2.1994742-.72783081-1.8953345-1.77685012-2.3998842-1.77685012-2.3998842-1.45271494-1.0171561.11000952-.9970144.11000952-.9970144 1.60594248.1158148 2.4506584 1.6908961 2.4506584 1.6908961 1.42717701 2.5066352 3.74523464 1.7825409 4.65674204 1.3625864.1453697-1.0594537.5588877-1.7825409 1.0156236-2.1924246-3.55271802-.4139121-7.2881304-1.8218173-7.2881304-8.1080435 0-1.7905975.62371466-3.2559066 1.64719605-4.4019696-.16501428-.4149192-.71407963-2.08365943.15715645-4.34154458 0 0 1.34270542-.44110335 4.3993984 1.68183238 1.2759139-.36456486 2.6451395-.54584021 4.005525-.55288981 1.3594033.0070496 2.7276467.18832495 4.005525.55288981 3.0547286-2.12293573 4.3954695-1.68183238 4.3954695-1.68183238.8732005 2.25788515.3241352 3.92662538.1601032 4.34154458 1.0254458 1.146063 1.6442493 2.6113721 1.6442493 4.4019696 0 6.3023396-3.7413057 7.689096-7.3048282 8.0949514.573621.5065638 1.0853617 1.5076066 1.0853617 3.0383762 0 2.1924246-.0196446 3.9618734-.0196446 4.4996569 0 .4390892.288775.9496814 1.1000952.7895549 6.3530495-2.1742971 10.9331778-8.3185243 10.9331778-15.5645027 0-9.0607461-7.1643697-16.4054189-16.0014733-16.4054189" fill="#68737a" fill-rule="evenodd"/></svg>