<svg height="32" viewBox="0 0 32 32" width="32" xmlns="http://www.w3.org/2000/svg"><path d="m10.06336 29.0018804c12.07552 0 18.68032-10.00448 18.68032-18.68032 0-.28416 0-.56704004-.0192-.84864004 1.2849041-.9293941 2.394055-2.08015437 3.27552-3.3984-1.1982348.53094627-2.4693385.87914067-3.77088 1.03296 1.3705523-.82050297 2.3963181-2.11101186 2.8864-3.63136-1.2887584.7647428-2.698693 1.30369539-4.16896 1.5936-2.0350941-2.16397532-5.2688392-2.69361589-7.8879369-1.29192969s-3.9721911 4.38610662-3.3005431 7.27976973c-5.2788535-.2646406-10.197151-2.75798625-13.53088-6.85952004-1.74256287 2.99986525-.85249551 6.83758014 2.03264 8.76416004-1.04481126-.0309664-2.0668424-.3128152-2.97984-.82176v.0832c.00085521 3.125239 2.2038419 5.817005 5.2672 6.43584-.96656692.2636032-1.98069685.3021367-2.96448.11264.86009335 2.6744612 3.32489544 4.5066033 6.13376 4.55936-2.32481915 1.8271128-5.19672383 2.8189795-8.1536 2.816-.52236343-.0010029-1.0442188-.0326305-1.56288-.09472 3.00241402 1.926754 6.49588915 2.9487576 10.06336 2.944" fill="#68737a" fill-rule="evenodd"/></svg>