<svg height="260pt" preserveAspectRatio="xMidYMid meet" viewBox="0 0 260 260" width="260pt" xmlns="http://www.w3.org/2000/svg"><path d="m1150 2593c-321-49-551-162-765-378-265-265-388-572-380-945 2-80 6-158 10-175 21-101 28-128 51-200 61-191 163-356 318-510 196-195 395-303 667-361 117-25 380-25 499 0 307 65 527 197 755 451 127 141 243 401 279 626 14 82 14 330 2 394-4 17-11 53-16 80-29 143-104 317-195 456-62 93-248 280-340 341-137 91-318 169-460 198-27 5-63 12-80 16-35 7-309 12-345 7z" transform="matrix(.1 0 0 -.1 0 260)"/></svg>